<svg xmlns="http://www.w3.org/2000/svg" width="180" height="60" viewBox="0 0 180 60"><defs><clipPath id="dlkla"><path d="M0 60h180V0H0z"/></clipPath></defs><g><g><g><path fill="#b32317" d="M51.77 0L60 9.34H41.45l5.208 8.115h3.646L47 12.333h19.748L58.492 3H118l-8 9.333h19.62l-3.373 5.122h3.673l5.348-8.115H116.59L124.61 0z"/></g><g><path fill="#b32317" d="M110.935 40.36l-2.48 3.64H67.087l-2.415-3.64H61.09l4.303 6.545h44.733l4.419-6.545z"/></g><g><g><path d="M14.388 21.16h6.995v.035c-2.293 1.749-5.437 4.08-9.383 6.996v.047l9.383 9.513v.036h-6.33L5.189 28v-.124zm-14.307 0h4.595l.08.081v16.465l-.08.081H.08L0 37.706V21.24z"/></g><g><path d="M29.114 27.912v3.462l.08.082h13.06l.069-.082v-3.462l-.07-.07H29.195zM23 21.312V37.59l.131.081H43.49l.081-.081v-3.452l-.081-.082H27.714v-9.211H43.49l.081-.081V21.31l-.081-.081H23.131z"/></g><g><path d="M45 20.94h6.177c.263.265 2.086 2.523 5.466 6.775l.036.047h.047c3.49-4.393 5.274-6.666 5.504-6.822h6.144l.046.06h.035l-9.118 11v5.707l-.082.082h-5.153L54 37.707V32l-9-11z"/></g><g><path d="M72.314 21.07h14.784c.902 0 1.73.462 2.414 1.388.419.7.63 1.382.63 2.051v.118l-.082.081H74.05v3.044h12.686c1.664 0 2.76.854 3.264 2.564l.141.91v3.043c0 1.236-.529 2.239-1.585 3.008a4.233 4.233 0 0 1-1.458.478l-.036.035H72.348c-.077-.054-.348-.12-.828-.197a3.161 3.161 0 0 1-1.77-1.505c-.32-.7-.48-1.251-.48-1.656l.036-.047H85.36v-2.96H72.675c-1.675 0-2.76-.856-3.288-2.567l-.117-.91V24.51c0-1.259.552-2.273 1.656-3.043.528-.263.99-.396 1.388-.396"/></g><g><path d="M92 21h20.865l.082.051v3.533l-.082.083h-8.022v13.035l-.082.081h-4.651l-.11-.081V24.667h-8V21.05z"/></g><g><path d="M119.54 24.743h11.31v9.689h-11.31zm-1.34-3.673c-.677 0-1.283.159-1.819.477-1.08.747-1.621 1.746-1.621 2.998v9.77l.117.91c.528 1.71 1.624 2.565 3.288 2.565h14.06c.646 0 1.229-.143 1.775-.431 1.079-.754 1.63-1.769 1.63-3.044v-9.77c0-.327-.066-.707-.197-1.143-.568-1.554-1.649-2.332-3.242-2.332z"/></g><g><path d="M137.601 21.43h7.206l8.768 12.231v-12.15l.07-.081h4.093l.082.081v16.196l-.082.081h-7.183c-.155-.163-3.059-4.228-8.71-12.195l-.047-.036v-.034h-.034v12.184l-.082.081h-4.08l-.082-.081V21.511z"/></g><g><path d="M165.542 27.912v3.462l.083.082h13.058l.07-.082v-3.462l-.07-.07h-13.058zm-6.062-6.6V37.59l.081.081h20.358l.081-.081v-3.452l-.081-.082h-15.775v-9.211h15.775l.081-.081V21.31l-.081-.081h-20.358z"/></g><g><path d="M72.942 8.554c-.315-.123-.49-.179-.812-.179-.346 0-.755.124-.755.625 0 .78 1.858.588 1.858 2 0 .934-.712 1.3-1.58 1.3-.302 0-.6-.086-.884-.18l.062-.575c.169.086.581.21.897.21.354 0 .848-.198.848-.755 0-.917-1.856-.65-1.856-2 0-.761.606-1.17 1.386-1.17.285 0 .625.049.894.17z"/></g><g/><g clip-path="url(#dlkla)"><path d="M74.38 12.232H75V7.91h-.62z"/></g><g clip-path="url(#dlkla)"><path d="M76.4 7.91h.842l1.907 3.479h.012V7.91h.619v4.32H79l-2-3.553v3.554h-.6z"/></g><g clip-path="url(#dlkla)"><path d="M84.175 8.616a1.737 1.737 0 0 0-.891-.241c-.996 0-1.659.717-1.659 1.69 0 1.014.732 1.69 1.629 1.69.309 0 .746-.081.94-.212l.038.601c-.328.136-.73.155-.985.155C81.88 12.299 81 11.42 81 10c0-1.286.935-2.17 2.254-2.17.334 0 .661.049.972.17z"/></g><g clip-path="url(#dlkla)"><path d="M85.31 7.91h2.42v.544h-1.802v1.264h1.641v.543h-1.64v1.425h1.801v.545h-2.42z"/></g><g clip-path="url(#dlkla)"><path d="M92.17 8.622l-.662.57-.328-.415 1.059-.867h.55v4.32h-.618z"/></g><g clip-path="url(#dlkla)"><path d="M95.91 10.115c-.487 0-.722-.466-.722-.868 0-.464.246-.91.812-.91.463 0 .716.502.716.91 0 .483-.291.868-.805.868zm-1.181 2.048c.155.068.594.136.891.136 1.38 0 1.752-1.225 1.752-2.396 0-.983-.248-2.073-1.455-2.073-.786 0-1.387.539-1.387 1.43 0 .74.47 1.361 1.3 1.361.359 0 .657-.11.948-.396l.012-.006c-.012.781-.402 1.572-1.206 1.572-.28 0-.584-.062-.768-.179z"/></g><g clip-path="url(#dlkla)"><path d="M100.131 10.738h-1.362l1.35-2.32h.012zm0 1.493h.618v-.985h.546v-.508h-.546V7.91h-.884l-1.745 2.828v.508h2.011z"/></g><g clip-path="url(#dlkla)"><path d="M104.717 8.418h-1.796l-.037 1.157c.116-.03.31-.062.558-.062.76 0 1.398.57 1.398 1.337 0 .948-.754 1.455-1.653 1.455a2.72 2.72 0 0 1-.927-.142l.018-.583c.266.149.52.218.898.218.514 0 1.008-.304 1.008-.854 0-.62-.464-.944-1.045-.944-.372 0-.608.083-.836.182l.037-2.272h2.377z"/></g><g clip-path="url(#dlkla)"><path d="M43 54.22h.824v4.965h2.377v.717H43z"/></g><g clip-path="url(#dlkla)"><path d="M48.72 59.9h.814v-5.68h-.814z"/></g><g clip-path="url(#dlkla)"><path d="M56.917 55.227c-.4-.227-.83-.39-1.562-.39-1.355 0-2.182.951-2.182 2.221 0 1.335.96 2.222 2.14 2.222.562 0 .687-.056.912-.097v-1.725H55v-.668h2v2.954c-.27.106-.807.256-1.695.256-1.798 0-2.995-1.16-2.995-3 0-1.715 1.27-2.88 3.004-2.88.83 0 1.195.123 1.686.286z"/></g><g clip-path="url(#dlkla)"><path d="M60.15 54.22H61v2.376h2.682V54.22h.814v5.682h-.814v-2.59H61v2.59h-.85z"/></g><g clip-path="url(#dlkla)"><path d="M68.746 54.936H67v-.716h4.327v.716H69.56V59.9h-.814z"/></g><g clip-path="url(#dlkla)"><path d="M77.67 54.22H79l1.795 4.721 1.75-4.721h1.343v5.682h-.814V55h-.016l-1.88 4.902h-.798L78.5 55h-.016v4.902h-.814z"/></g><g clip-path="url(#dlkla)"><path d="M90.296 57.8H88l1.164-2.8zm-3.956 2.102h.855l.578-1.434h2.784l.577 1.434H92l-2.38-5.682h-.854z"/></g><g clip-path="url(#dlkla)"><path d="M95.234 54.936h.952c1.172 0 2.075.782 2.075 2.064 0 1.51-.772 2.185-2.172 2.185h-.855zm-.814 4.966h1.676c1.904 0 3.028-.986 3.028-2.902 0-1.738-1.343-2.78-3.028-2.78H94.42z"/></g><g clip-path="url(#dlkla)"><path d="M102 54.22h3.201v.716h-2.367v1.66H105v.716h-2.166v1.873h2.367v.717H102z"/></g><g clip-path="url(#dlkla)"><path d="M112.06 54.22h3.182v.716h-2.368v1.66H115v.716h-2.126v1.873h2.368v.717h-3.182z"/></g><g clip-path="url(#dlkla)"><path d="M121.496 57.8h-2.263l1.132-2.8zm-3.956 2.102h.855l.605-1.434h2.757l.577 1.434h.887l-2.4-5.682H120z"/></g><g clip-path="url(#dlkla)"><path d="M128.252 55.072c-.416-.162-.643-.236-1.066-.236-.456 0-.993.164-.993.757 0 1.09 2.442.84 2.442 2.711 0 1.212-.937 1.696-2.076 1.696-.398 0-.79-.117-1.164-.24l.081-.76c.277.118.766.28 1.181.28.463 0 1.115-.28 1.115-.927 0-1.27-2.442-.92-2.442-2.686 0-1.01.797-1.547 1.824-1.547.374 0 .846.065 1.212.204z"/></g><g clip-path="url(#dlkla)"><path d="M133 57.525l-2.26-3.305h.952l1.693 2.548L135 54.22h1l-2.224 3.305V59.9H133z"/></g><g clip-path="url(#dlkla)"><path fill="#231f20" d="M136.83 55.163v-.39h.26c.125 0 .26.023.26.227 0 .171-.176.163-.35.163zm0 .136h.231l.324.53h.183l-.332-.53c.139-.03.275-.122.275-.299 0-.246-.118-.363-.385-.363h-.456v1.191h.16zm1.052-.068c0 .483-.36.867-.882.867-.439 0-.797-.384-.797-.867 0-.484.358-.866.797-.866.522 0 .882.382.882.866zm.118 0c0-.55-.405-1.001-1-1.001-.512 0-1 .45-1 1.001 0 .55.488 1.002 1 1.002.595 0 1-.451 1-1.002z"/></g></g></g></g></svg>