<svg xmlns="http://www.w3.org/2000/svg" width="173" height="59" viewBox="0 0 173 59"><defs><clipPath id="budaa"><path d="M152.6 21h19.635v15.77H152.6z"/></clipPath><clipPath id="budab"><path d="M0 58.138h172.231V.73H0z"/></clipPath></defs><g><g><g><path fill="#b32317" d="M49.71.73l7.842 9.18H39.91l4.946 7.977h3.463l-3.122-5.033h18.738l-7.84-9.18h56.529L105 12.853h18.649l-3.205 5.033h3.487L129 9.911h-17.727L118.888.73z"/></g><g><path fill="#b32317" d="M106.54 39.21L104.144 43H64.175l-2.333-3.79H58.38l4.157 6.706h43.222L110 39.21z"/></g><g><g><path fill="#fff" d="M13.766 21h6.694c-2.195 1.677-5.202 3.908-9.025 6.698v.044l9.025 9.103v.034h-6.058L5 27.474v-.077zm-9.215 0v15.801l-.077.078H.078L0 36.8V21z"/></g><g><path fill="#fff" d="M27.863 27.433v3.313l.078.077h12.494l.066-.077v-3.313l-.066-.068H27.941zm-5.803-6.315v15.574l.078.078h19.479l.079-.078V33.39l-.079-.079H26.524v-8.812h15.093l.079-.078v-3.303L41.617 21H22.138z"/></g><g><path fill="#fff" d="M43.088 20.76H49c.22.24 2 2.414 5.198 6.482l.035.045h.044c3.339-4.203 5.094-6.378 5.267-6.527h5.879l.044.034h.034l-8.725 10.509v5.5l-.079.078h-4.93l-.067-.078v-5.5L43 20.838z"/></g><g><path fill="#fff" d="M69.192 20.89h14.146c.885 0 1.662.442 2.31 1.328.352.669.603 1.323.603 1.963v.112l-.079.078H70.854v2.913H83c1.584 0 2.632.817 3.138 2.453l.113.87v2.912c0 1.184-.507 2.142-1.518 2.878a4.04 4.04 0 0 1-1.395.457l-.034.034H69.225c-.074-.052-.338-.115-.792-.188-.751-.27-1.317-.7-1.696-1.441-.305-.669-.457-1.197-.457-1.584l.034-.045h15.362v-2.833H69.538c-1.592 0-2.641-.797-3.146-2.455l-.112-.87V24.18c0-1.181.528-2.181 1.584-2.912.506-.269.948-.38 1.328-.38"/></g><g><path fill="#fff" d="M88.068 20.8H108l.071.078v3.38l-.071.079h-7.683v12.472l-.078.078h-4.451l-.077-.078V24.337h-7.643L88 24.258v-3.38z"/></g><g><path fill="#fff" d="M114.384 24.404h10.822v9.271h-10.822zm-1.283-3.514c-.646 0-1.227.11-1.74.457-1.034.714-1.551 1.653-1.551 2.868v9.348l.112.871c.505 1.636 1.554 2.454 3.146 2.454h13.454c.618 0 1.175-.137 1.673-.413 1.057-.721 1.585-1.691 1.585-2.912v-9.348c0-.313-.064-.677-.189-1.094-.591-1.487-1.591-2.231-3.102-2.231z"/></g><g><path fill="#fff" d="M131.668 21.23h6.895L147 32.933V21.23h3.936l.064.078v15.496l-.064.078h-6.873c-.149-.156-2.927-4.046-8.334-11.67l-.045-.033v-.033h-.034v11.658l-.077.078h-3.905l-.078-.078V21.308z"/></g><g><g/><g clip-path="url(#budaa)"><path fill="#fff" d="M158.401 27.433v3.313l.079.077H171v-3.458h-12.52zm-5.801-6.315v15.574l.078.078h19.479l.078-.078V33.39l-.078-.079h-15.094v-8.812h15.094l.078-.078v-3.303l-.078-.118h-19.479z"/></g></g><g><path fill="#fff" d="M69.786 8.913c-.302-.118-.469-.171-.786-.171-.322 0-.713.118-.713.55 0 .794 1.777.61 1.777 1.972 0 .882-.681 1.232-1.511 1.232-.289 0-.553-.082-.846-.172l.058-.55c.235.082.557.226.86.226.375 0 .81-.214.81-.7 0-.924-1.775-.669-1.775-1.954 0-.735.58-1.126 1.34-1.126.259 0 .584.047.869.148z"/></g><g/><g clip-path="url(#budab)"><path fill="#fff" d="M71.163 12.424h.594V8.29h-.594z"/></g><g clip-path="url(#budab)"><path fill="#fff" d="M73.1 8.29h.807l1.823 3.329h.013V8.29h.591v4.134h-.757L73.704 9h-.012v3.424H73.1z"/></g><g clip-path="url(#budab)"><path fill="#fff" d="M80.536 9a1.426 1.426 0 0 0-.853-.259c-.953 0-1.586.687-1.586 1.617 0 .97.7 1.642 1.557 1.642.296 0 .694-.102.901-.227l.036.575c-.315.13-.7.147-.943.147-1.308 0-2.178-.84-2.178-2.155 0-1.274.922-2.12 2.184-2.12.346 0 .633.047.93.178z"/></g><g clip-path="url(#budab)"><path fill="#fff" d="M81.62 8.29h2.315v.521h-1.723V10h1.57v.54h-1.57v1.363h1.723v.521H81.62z"/></g><g clip-path="url(#budab)"><path fill="#fff" d="M88.197 9l-.634.517-.313-.398 1.012-.829h.528v4.135h-.593z"/></g><g clip-path="url(#budab)"><path fill="#fff" d="M91.77 10.406c-.467 0-.692-.406-.692-.83 0-.444.236-.87.733-.87.487 0 .729.481.729.87 0 .424-.278.83-.77.83zm-1.131 1.96c.148.065.568.13.854.13 1.307 0 1.675-1.172 1.675-2.292 0-.941-.237-1.984-1.392-1.984-.776 0-1.326.516-1.326 1.368 0 .741.444 1.303 1.243 1.303.307 0 .628-.106.907-.379l.011-.006C92.6 11.3 92.226 12 91.457 12c-.267 0-.522 0-.735-.16z"/></g><g clip-path="url(#budab)"><path fill="#fff" d="M95.814 11h-1.303l1.291-2.224h.012zm0 1.424h.593v-.942h.521V11h-.521V8.29h-.847L93.89 11v.482h1.924z"/></g><g clip-path="url(#budab)"><path fill="#fff" d="M100.192 8.776h-1.719l-.036 1.106A2.36 2.36 0 0 1 99 9.824c.7 0 1.309.545 1.309 1.279 0 .897-.721 1.392-1.582 1.392-.449 0-.727-.083-.887-.136l.017-.558c.256.143.497.199.859.199.493 0 .965-.282.965-.808 0-.593-.443-.882-1-.882-.355 0-.581.059-.8.153l.037-2.173h2.274z"/></g><g clip-path="url(#budab)"><path fill="#fff" d="M41.16 52.61h.778v4.75h2.275V58H41.16z"/></g><g clip-path="url(#budab)"><path fill="#fff" d="M46.61 58h.78v-5.39h-.78z"/></g><g clip-path="url(#budab)"><path fill="#fff" d="M54.468 53.57c-.382-.25-.794-.375-1.468-.375-1.281 0-2.114.911-2.114 2.126 0 1.277.918 2.126 2.048 2.126.537 0 .677-.054.872-.093v-1.651h-1.145v-.639h1.924v2.827c-.296.109-.81.242-1.659.242-1.721 0-2.866-1.133-2.866-2.835 0-1.674 1.215-2.788 2.874-2.788.794 0 1.144.118 1.596.273z"/></g><g clip-path="url(#budab)"><path fill="#fff" d="M57.56 52.61h.779v2.274h2.601V52.61h.779V58h-.779v-2.43h-2.601V58h-.779z"/></g><g clip-path="url(#budab)"><path fill="#fff" d="M65.78 53.295h-1.69v-.685h4.159v.685h-1.69V58h-.779z"/></g><g clip-path="url(#budab)"><path fill="#fff" d="M74.31 52.61h1.285l1.705 4.518L79 52.61h1.26V58h-.778v-4.658h-.016L77.667 58h-.763l-1.8-4.658h-.015V58h-.779z"/></g><g clip-path="url(#budab)"><path fill="#fff" d="M86.404 56h-2.165l1.082-2.658zm-3.784 2h.817L84 56.675h2.654L87.207 58h.848l-2.297-5.39h-.818z"/></g><g clip-path="url(#budab)"><path fill="#fff" d="M91.128 53.296H92c1.161 0 2 .704 2 2.016 0 1.402-.714 2.048-2.053 2.048h-.819zM90.35 58H92c1.745 0 2.851-.897 2.851-2.719 0-1.674-1.285-2.67-2.851-2.67h-1.65z"/></g><g clip-path="url(#budab)"><path fill="#fff" d="M97.61 52.61h3.044v.686h-2.265v1.588h2.064v.685h-2.064v1.791h2.265V58H97.61z"/></g><g clip-path="url(#budab)"><path fill="#fff" d="M107.22 52.61h3.045v.686H108v1.588h2.062v.685H108v1.791h2.265V58h-3.045z"/></g><g clip-path="url(#budab)"><path fill="#fff" d="M116.255 56h-2.165l1.083-2.658zm-3.785 2h.818l.553-1.325h2.664l.552 1.325h.849l-2.298-5.39h-.817z"/></g><g clip-path="url(#budab)"><path fill="#fff" d="M122.716 53.43c-.398-.154-.615-.226-1.021-.226-.435 0-.95.157-.95.724 0 1.072 2.336.804 2.336 2.595 0 1.159-.895 1.62-1.985 1.62-.381 0-.756-.143-1.096-.227l.06-.723c.264.108.733.263 1.13.263.443 0 1.067-.249 1.067-.886 0-1.216-2.337-.88-2.337-2.57 0-1 .763-1.48 1.744-1.48.336 0 .786.061 1.16.194z"/></g><g clip-path="url(#budab)"><path fill="#fff" d="M127.226 55.772L125.1 52.61h.9l1.631 2.39 1.581-2.39h.91L128 55.772V58h-.774z"/></g></g></g></g></svg>