<svg xmlns="http://www.w3.org/2000/svg" width="67" height="63" viewBox="0 0 67 63"><defs><clipPath id="ht4va"><path d="M.82 0h66v63h-66z"/></clipPath></defs><g><g><g><g/><g clip-path="url(#ht4va)"><path d="M59.437 18.573a26.19 26.19 0 0 1 7.383 18.252c0 7-2.71 13.58-7.63 18.525a.969.969 0 0 1-1.377-.001c-.38-.349-.379-1.004.002-1.349 4.552-4.612 7.059-10.699 7.059-17.175 0-6.825-2.874-13.089-7.446-17.5l-.028-.028c-4.317-4.141-10.157-6.687-16.577-6.687-13.262 0-24.05 10.863-24.05 24.215C16.772 50.178 27.56 61 40.822 61c5.07 0 9.917-1.529 14.02-4.497a.969.969 0 0 1 1.358.224A1 1 0 0 1 56 58.094C51.543 61.304 46.302 63 40.823 63c-10.491 0-19.55-6.29-23.654-15.32h-5.65a.988.988 0 0 1-.973-.98c0-.54.454-.98.973-.98h4.854a25.881 25.881 0 0 1-.921-3.181H5.51a.994.994 0 0 1-.973-.98c0-.559.462-.98.973-.98h9.583a26.45 26.45 0 0 1-.268-3.754c0-.147.003-.293.006-.44H1.793a.977.977 0 0 1-.973-.98c0-.54.436-.98.973-.98h13.143c.13-1.425.374-2.834.726-4.192H6.419a.977.977 0 0 1-.973-.98c0-.541.436-.98.973-.98h9.834a26.115 26.115 0 0 1 1.337-3.182h-5.162a.977.977 0 0 1-.973-.98c0-.541.435-.98.973-.98h6.146a.97.97 0 0 1 .1.005 26.324 26.324 0 0 1 3.39-4.414L20.587 17l-1.316 1.13a.965.965 0 0 1-.634.237A.915.915 0 0 1 17.9 18l-2.09-2.42a.985.985 0 0 1 .104-1.383L23.099 8a.947.947 0 0 1 1.373.08l2.09 2.448a.983.983 0 0 1-.103 1.382L25.14 13l1.551 1.864c3.019-1.975 6.467-3.338 10.17-3.864V8h-3.351c-1.564 0-2.837-1.289-2.837-2.864v-2.28C30.675 1.281 31.948 0 33.512 0h14.622C49.698 0 51 1.281 51 2.856v2.28A2.881 2.881 0 0 1 48.134 8h-3.352v3c3.632.515 7.02 1.836 9.995 3.75L56.231 13l-1.316-1.09a.984.984 0 0 1-.103-1.382l2.09-2.447a.97.97 0 0 1 .664-.338.896.896 0 0 1 .708.257l7.186 6.197a.985.985 0 0 1 .104 1.382L63.474 18a.906.906 0 0 1-.738.367.97.97 0 0 1-.634-.236L60.786 17l-1.35 1.573zm-2.515-7.51L62.632 16l.822-1-5.711-4.898zm-.535 4.809c.613.426 1.11.877 1.613 1.347l1.31-1.505-1.603-1.388zM36.519 6h1.572V2h-1.572zM40 6h1.609V2H40zm3.555 0h1.572V2h-1.572zM49 2.856c0-.494-.375-.856-.866-.856h-1.06v4h1.06c.491 0 .866-.37.866-.864zm-16.379 2.28c0 .495.379.864.891.864h1.06V2h-1.06c-.512 0-.89.362-.89.856zm-12.566 9.732l3.08-2.667 1.316-1.138-.82-.961L17.92 15l.82 1zm2.007.846l1.403 1.643A29.054 29.054 0 0 1 25.095 16l-1.429-1.674-1.574 1.363zm16.748-4.986a26.09 26.09 0 0 1 4.026 0V8H38.81z"/></g></g><g><path d="M32.493 19.934a.971.971 0 0 0-1.314-.415c-5.923 3.116-9.973 8.954-10.836 15.616C18.884 46.407 26.807 56.773 38 58.242c.9.117 1.787.175 2.666.174 10.125 0 18.952-7.581 20.334-17.953.667-5.463-.78-10.871-4.117-15.236-3.336-4.364-8.16-7.16-13.585-7.871a20.057 20.057 0 0 0-7.845.497.985.985 0 0 0-.695 1.198.974.974 0 0 0 1.19.699 18.251 18.251 0 0 1 3.73-.583v2.577c0 .54.436.98.974.98s.974-.44.974-.98v-2.575c.473.026.946.07 1.374.132 3.84.497 7.309 2.122 10.083 4.699l-1.764 1.734a.985.985 0 0 0 0 1.387.972.972 0 0 0 1.378 0l1.758-1.771c.306.345.601.703.884 1.073 2.33 3.047 3.661 6.658 3.824 10.419h-2.416a.978.978 0 0 0-.974.98c0 .542.436.981.974.981h2.411A10.61 10.61 0 0 1 59 40.209a18.366 18.366 0 0 1-4.549 10.03l-1.669-1.68a.97.97 0 0 0-1.377 0 .944.944 0 0 0 0 1.388l1.67 1.681C50 54.418 46 56.168 41.748 56.421V54c0-.518-.436-1-.975-1-.538 0-.974.482-.974 1v2.433a18.372 18.372 0 0 1-11.418-4.663L30.107 50c.38-.35.38-1 0-1.354a.97.97 0 0 0-1.378 0L27 50.393a18.697 18.697 0 0 1-4.847-11.468h2.525a.977.977 0 0 0 .974-.98c0-.542-.436-.945-.974-.945h-2.54a18.723 18.723 0 0 1 4.688-11.62l1.817 1.827c.19.192.44.287.689.287.249 0 .498-.095.668-.287a.95.95 0 0 0 0-1.386L28.2 24c1.16-1.074 2.46-2 3.881-2.743a.985.985 0 0 0 .412-1.323"/></g><g><path d="M40.72 28.64c-.53 0-.96.447-.96.998v5.932c-.818.43-1.39 1.237-1.39 2.23 0 1.348 1.054 2.445 2.35 2.445.354 0 .69-.085.992-.245l6.4 6.675c.187.195.433.325.678.325.21 0 .491-.13.678-.325a1.028 1.028 0 0 0 0-1.412L43 38.497c0-.22.068-.497.068-.697 0-.993-.572-1.8-1.39-2.23V29.64c0-.552-.43-.999-.959-.999m-.43 9.16a.44.44 0 0 1 .43-.449c.281 0 .43.202.43.449 0 .2-.149.448-.43.448-.237 0-.43-.248-.43-.448"/></g></g></g></svg>