<svg xmlns="http://www.w3.org/2000/svg" width="36" height="36" viewBox="0 0 36 36"><g><g><g><path fill="#58595b" d="M25.335 34.199c3.665-1.565 6.55-4.303 8.456-7.726.978 1.956.392 4.645-1.613 6.527-2.052 2-4.936 2.421-6.843 1.199zm-12.513-1.712L13 32l.115-.295 1.809-4.987c2.004.684 4.155.733 6.159.049l.635 6.112c-2.933.733-6.012.586-8.896-.392zM3.486 32C1.678 30.092 1.14 27.598 2 25.691a17.396 17.396 0 0 0 7.792 8.068c-1.907.782-4.448.146-6.306-1.759zM3 3.493c2.05-1.907 4.739-2.396 6.645-1.37C6.125 4 3.388 7 1.775 10.584.358 8.627.895 5.595 3 3.493zm19.94 1.271l-1.466 4.4c-2.346-.928-4.937-.83-7.234.196l-.978-6.258c3.275-1.027 6.794-.88 9.971.244-.146.44-.233.93-.293 1.418zm9.825-1.467C34.671 5.253 35.16 8 34.134 9.898A17.947 17.947 0 0 0 26 1.83c1.926-1.173 4.76-.586 6.765 1.467zM26.899 14.74L32.472 13a15.278 15.278 0 0 1-.05 9.904L26.509 22a9.156 9.156 0 0 0 .391-7.261zM13.311 13C16 10.338 20.35 10.436 23 13.125c2.629 2.69 2.53 7.04-.158 9.681-2.688 2.64-7.038 2.592-9.678-.146a6.837 6.837 0 0 1 .147-9.66zM3 13.467l6.352 1.076c-.831 2.103-.831 4.457-.05 6.6l-6.158 1.419A15.974 15.974 0 0 1 3 13.467zm31.671-2.298c1.711-2.298 1.271-5.916-1.27-8.507C30.858.07 27-.565 24.7 1.292a17.768 17.768 0 0 0-13.882.245C8.57-.125 5 .315 2.411 2.808-.131 5.302-.913 9.556 1.287 11.854a17.802 17.802 0 0 0 .146 12.517c-1.515 2.298-.977 5.77 1.418 8.312s5.914 3.13 8.26 1.711a17.824 17.824 0 0 0 13.002.391c2.249 1.956 6.061 1.516 8.75-1.075 2.688-2.592 3.137-6.112 1.564-8.459a17.842 17.842 0 0 0 .244-14.082z"/></g><g><path fill="#b12725" d="M13.22 32.526l.091-.285L15 27.405c-2.465-.853-4.382-2.845-5.249-5.405L4 23.375c1.278 4.457 4.884 8.013 9 9.625z"/></g><g><path fill="#b12725" d="M20.05 9h-.1"/></g><g><path fill="#b12725" d="M10.17 15L4 14C5.578 9.312 9.26 5.645 14 4l1 6s-3.3 1.85-4.83 5z"/></g><g><path fill="#b12725" d="M22.614 33L22 26.806c2.313-.693 4.249-2.477 5.24-4.806l5.76.892S31.395 29.086 22.614 33z"/></g><g><path fill="#b12725" d="M23.76 4c-.147.427-.244.9-.293 1.375L22 9.595A9.249 9.249 0 0 1 27.427 15L33 13.293S30.604 7.651 23.76 4z"/></g></g></g></svg>