<svg xmlns="http://www.w3.org/2000/svg" width="55" height="42" viewBox="0 0 55 42"><g><g><g><path fill="none" stroke="#585c5e" stroke-linecap="round" stroke-linejoin="round" stroke-miterlimit="20" stroke-width="4.83" d="M27 9.705C24.333 5.445 19.685 2.907 14.729 3 6.119 3 3 10.603 3 10.603v27.844s3.729-5.804 12-5.804C19.79 32.593 24.29 35 27 39V9.705v0z"/></g><g><path fill="none" stroke="#585c5e" stroke-linecap="round" stroke-linejoin="round" stroke-miterlimit="20" stroke-width="4.83" d="M28 9.705C30.667 5.445 35.315 2.907 40.271 3 48.881 3 52 10.603 52 10.603v27.844s-3.729-5.804-12-5.804C35.21 32.593 30.71 35 28 39z"/></g><g><path fill="none" stroke="#585c5e" stroke-linecap="round" stroke-linejoin="round" stroke-miterlimit="20" stroke-width="2.26" d="M47 27.818v0S44.639 26 39.5 26c-5.139 0-7.5 2-7.5 2v0"/></g><g><path fill="none" stroke="#585c5e" stroke-linecap="round" stroke-linejoin="round" stroke-miterlimit="20" stroke-width="2.26" d="M47 22.818v0S44.639 21 39.5 21c-5.139 0-7.5 2-7.5 2v0"/></g><g><path fill="none" stroke="#585c5e" stroke-linecap="round" stroke-linejoin="round" stroke-miterlimit="20" stroke-width="2.26" d="M47 17.818v0S44.639 16 39.5 16c-5.139 0-7.5 2-7.5 2v0"/></g><g><path fill="none" stroke="#585c5e" stroke-linecap="round" stroke-linejoin="round" stroke-miterlimit="20" stroke-width="2.26" d="M47 13.818v0S44.639 12 39.5 12c-5.139 0-7.5 2-7.5 2v0"/></g><g><path fill="none" stroke="#585c5e" stroke-linecap="round" stroke-linejoin="round" stroke-miterlimit="20" stroke-width="2.26" d="M23 27.818v0S20.639 26 15.5 26C10.361 26 8 28 8 28v0"/></g><g><path fill="none" stroke="#585c5e" stroke-linecap="round" stroke-linejoin="round" stroke-miterlimit="20" stroke-width="2.26" d="M23 22.818v0S20.639 21 15.5 21C10.361 21 8 23 8 23v0"/></g><g><path fill="none" stroke="#585c5e" stroke-linecap="round" stroke-linejoin="round" stroke-miterlimit="20" stroke-width="2.26" d="M23 17.818v0S20.639 16 15.5 16C10.361 16 8 18 8 18v0"/></g><g><path fill="none" stroke="#b32317" stroke-linecap="round" stroke-linejoin="round" stroke-miterlimit="20" stroke-width="2.26" d="M23 13.818v0S20.639 12 15.5 12C10.361 12 8 14 8 14v0"/></g></g></g></svg>